<svg width="20" height="14" viewBox="0 0 20 14" fill="none" xmlns="http://www.w3.org/2000/svg">
<path d="M0 1.25C0 0.559644 0.559644 0 1.25 0H18.75C19.4404 0 20 0.559644 20 1.25C20 1.94036 19.4404 2.5 18.75 2.5H1.25C0.559644 2.5 0 1.94036 0 1.25Z" fill="#f2f3f4"/>
<path d="M0 6.66667C0 5.97631 0.559644 5.41667 1.25 5.41667H18.75C19.4404 5.41667 20 5.97631 20 6.66667C20 7.35702 19.4404 7.91667 18.75 7.91667H1.25C0.559644 7.91667 0 7.35702 0 6.66667Z" fill="#f2f3f4"/>
<path d="M1.25 10.8333C0.559644 10.8333 0 11.393 0 12.0833C0 12.7737 0.559644 13.3333 1.25 13.3333H18.75C19.4404 13.3333 20 12.7737 20 12.0833C20 11.393 19.4404 10.8333 18.75 10.8333H1.25Z" fill="#f2f3f4"/>
</svg>
